[ConversionWorker] Logging FFmpeg output to: ffmpeg_logs\ffmpeg_conversion_t_wav_20250525_154700.log\n[ConversionWorker] Getting duration with command: ffprobe -v error -show_entries format=duration -of default=noprint_wrappers=1:nokey=1 Z:\AAAAA01\t.wav\n[ConversionWorker] Duration for t.wav: 11418446 ms\n[ConversionWorker] Starting FFmpeg for t.wav: ffmpeg -i Z:\AAAAA01\t.wav -b:a 256k -vn -y -loglevel error -stats -progress pipe:1 Z:\AAAAA01\t.mp3\n[ConversionWorker] FFmpeg process started. PID: 24452\n[STDOUT RAW] bitrate= 152.4kbits/s\n[STDOUT RAW] total_size=67244\n[STDOUT RAW] out_time_us=3529958\n[STDOUT RAW] out_time_ms=3529958\n[STDOUT RAW] out_time=00:00:03.529958\n[STDOUT RAW] dup_frames=0\n[STDOUT RAW] drop_frames=0\n[STDOUT RAW] speed=7.01x\n[STDOUT RAW] progress=continue\n[STDERR RAW] size=      66KiB time=00:00:03.52 bitrate= 152.4kbits/s speed=7.01x\n[STDOUT RAW] bitrate= 156.2kbits/s\n[STDOUT RAW] total_size=137324\n[STDOUT RAW] out_time_us=7033958\n[STDOUT RAW] out_time_ms=7033958\n[STDOUT RAW] out_time=00:00:07.033958\n[STDOUT RAW] dup_frames=0\n[STDOUT RAW] drop_frames=0\n[STDOUT RAW] speed=6.88x\n[STDOUT RAW] progress=continue\n[STDERR RAW] size=     134KiB time=00:00:07.03 bitrate= 156.2kbits/s speed=6.88x\n[STDOUT RAW] bitrate= 157.5kbits/s\n[STDOUT RAW] total_size=210764\n[STDOUT RAW] out_time_us=10705958\n[STDOUT RAW] out_time_ms=10705958\n[STDOUT RAW] out_time=00:00:10.705958\n[STDOUT RAW] dup_frames=0\n[STDOUT RAW] drop_frames=0\n[STDOUT RAW] speed=6.93x\n[STDOUT RAW] progress=continue\n[STDERR RAW] size=     206KiB time=00:00:10.70 bitrate= 157.5kbits/s speed=6.93x\n[STDOUT RAW] bitrate= 106.3kbits/s\n[STDOUT RAW] total_size=524288\n[STDOUT RAW] out_time_us=39457958\n[STDOUT RAW] out_time_ms=39457958\n[STDOUT RAW] out_time=00:00:39.457958\n[STDOUT RAW] dup_frames=0\n[STDOUT RAW] drop_frames=0\n[STDOUT RAW] speed=19.3x\n[STDOUT RAW] progress=continue\n[STDERR RAW] size=     512KiB time=00:00:39.45 bitrate= 106.3kbits/s speed=19.3x\n[STDOUT RAW] bitrate= 159.8kbits/s\n[STDOUT RAW] total_size=2621440\n[STDOUT RAW] out_time_us=131233958\n[STDOUT RAW] out_time_ms=131233958\n[STDOUT RAW] out_time=00:02:11.233958\n[STDOUT RAW] dup_frames=0\n[STDOUT RAW] drop_frames=0\n[STDOUT RAW] speed=51.2x\n[STDOUT RAW] progress=continue\n[STDERR RAW] size=    2560KiB time=00:02:11.23 bitrate= 159.8kbits/s speed=51.2x\n[STDOUT RAW] bitrate= 156.0kbits/s\n[STDOUT RAW] total_size=4194304\n[STDOUT RAW] out_time_us=215089958\n[STDOUT RAW] out_time_ms=215089958\n[STDOUT RAW] out_time=00:03:35.089958\n[STDOUT RAW] dup_frames=0\n[STDOUT RAW] drop_frames=0\n[STDOUT RAW] speed=69.7x\n[STDOUT RAW] progress=continue\n[STDERR RAW] size=    4096KiB time=00:03:35.08 bitrate= 156.0kbits/s speed=69.7x\n[STDOUT RAW] bitrate= 154.1kbits/s\n[STDOUT RAW] total_size=5767168\n[STDOUT RAW] out_time_us=299425958\n[STDOUT RAW] out_time_ms=299425958\n[STDOUT RAW] out_time=00:04:59.425958\n[STDOUT RAW] dup_frames=0\n[STDOUT RAW] drop_frames=0\n[STDOUT RAW] speed=83.2x\n[STDOUT RAW] progress=continue\n[STDERR RAW] size=    5632KiB time=00:04:59.42 bitrate= 154.1kbits/s speed=83.2x\n[STDOUT RAW] bitrate= 158.2kbits/s\n[STDOUT RAW] total_size=7602176\n[STDOUT RAW] out_time_us=384385958\n[STDOUT RAW] out_time_ms=384385958\n[STDOUT RAW] out_time=00:06:24.385958\n[STDOUT RAW] dup_frames=0\n[STDOUT RAW] drop_frames=0\n[STDOUT RAW] speed=93.3x\n[STDOUT RAW] progress=continue\n[STDERR RAW] size=    7424KiB time=00:06:24.38 bitrate= 158.2kbits/s speed=93.3x\n[STDOUT RAW] bitrate= 158.5kbits/s\n[STDOUT RAW] total_size=9437184\n[STDOUT RAW] out_time_us=476425958\n[STDOUT RAW] out_time_ms=476425958\n[STDOUT RAW] out_time=00:07:56.425958\n[STDOUT RAW] dup_frames=0\n[STDOUT RAW] drop_frames=0\n[STDOUT RAW] speed= 103x\n[STDOUT RAW] progress=continue\n[ConversionWorker] Cancel method called.\n[ConversionWorker] Cancellation requested during processing. Terminating FFmpeg.\n[ConversionWorker] Waiting for reader threads to join...\n[STDERR RAW] size=    9216KiB time=00:07:56.42 bitrate= 158.5kbits/s speed= 103x\n[ConversionWorker] Process poll is None after loop, waiting for process to terminate...\n[ConversionWorker] FFmpeg process ended. Return code: 1\n[ConversionWorker] Closing FFmpeg log file.\n